<?xml version="1.0" encoding="UTF-8" standalone="no"?>
<!DOCTYPE svg PUBLIC "-//W3C//DTD SVG 1.1//EN"
 "http://www.w3.org/Graphics/SVG/1.1/DTD/svg11.dtd">
<!-- Generated by graphviz version 2.43.0 (0)
 -->
<!-- Title: finite_state_machine Pages: 1 -->
<svg width="741pt" height="149pt"
 viewBox="0.00 0.00 741.00 149.00" xmlns="http://www.w3.org/2000/svg" xmlns:xlink="http://www.w3.org/1999/xlink">
<g id="graph0" class="graph" transform="scale(1 1) rotate(0) translate(4 145)">
<title>finite_state_machine</title>
<polygon fill="white" stroke="transparent" points="-4,4 -4,-145 737,-145 737,4 -4,4"/>
<!-- 4 -->
<g id="node1" class="node">
<title>4</title>
<ellipse fill="none" stroke="black" cx="366.5" cy="-72" rx="18" ry="18"/>
<text text-anchor="middle" x="366.5" y="-68.3" font-family="Helvetica,Arial,sans-serif" font-size="14.00">4</text>
</g>
<!-- 7 -->
<g id="node2" class="node">
<title>7</title>
<ellipse fill="none" stroke="black" cx="715" cy="-72" rx="18" ry="18"/>
<text text-anchor="middle" x="715" y="-68.3" font-family="Helvetica,Arial,sans-serif" font-size="14.00">7</text>
</g>
<!-- 4&#45;&gt;7 -->
<g id="edge1" class="edge">
<title>4&#45;&gt;7</title>
<path fill="none" stroke="black" d="M384.68,-72C440.68,-72 618.22,-72 686.7,-72"/>
<polygon fill="black" stroke="black" points="686.71,-75.5 696.71,-72 686.71,-68.5 686.71,-75.5"/>
<text text-anchor="middle" x="635" y="-75.8" font-family="Helvetica,Arial,sans-serif" font-size="14.00">6</text>
</g>
<!-- 3 -->
<g id="node3" class="node">
<title>3</title>
<ellipse fill="none" stroke="black" cx="635" cy="-123" rx="18" ry="18"/>
<text text-anchor="middle" x="635" y="-119.3" font-family="Helvetica,Arial,sans-serif" font-size="14.00">3</text>
</g>
<!-- 4&#45;&gt;3 -->
<g id="edge2" class="edge">
<title>4&#45;&gt;3</title>
<path fill="none" stroke="black" d="M384.55,-74.2C434.53,-80.68 578.52,-99.69 599,-106 602.64,-107.12 606.36,-108.57 609.97,-110.15"/>
<polygon fill="black" stroke="black" points="608.55,-113.35 619.08,-114.5 611.57,-107.03 608.55,-113.35"/>
<text text-anchor="middle" x="527.5" y="-109.8" font-family="Helvetica,Arial,sans-serif" font-size="14.00">4611686018427387903</text>
</g>
<!-- 1 -->
<g id="node4" class="node">
<title>1</title>
<ellipse fill="none" stroke="black" cx="635" cy="-18" rx="18" ry="18"/>
<text text-anchor="middle" x="635" y="-14.3" font-family="Helvetica,Arial,sans-serif" font-size="14.00">1</text>
</g>
<!-- 4&#45;&gt;1 -->
<g id="edge3" class="edge">
<title>4&#45;&gt;1</title>
<path fill="none" stroke="black" d="M383.57,-65.78C401.11,-59.21 430.17,-49 456,-43 508.75,-30.75 571.79,-23.62 606.92,-20.3"/>
<polygon fill="black" stroke="black" points="607.24,-23.78 616.88,-19.39 606.6,-16.81 607.24,-23.78"/>
<text text-anchor="middle" x="527.5" y="-46.8" font-family="Helvetica,Arial,sans-serif" font-size="14.00">4611686018427387903</text>
</g>
<!-- 3&#45;&gt;7 -->
<g id="edge4" class="edge">
<title>3&#45;&gt;7</title>
<path fill="none" stroke="black" d="M650.67,-113.41C662,-106 677.89,-95.61 690.92,-87.09"/>
<polygon fill="black" stroke="black" points="692.94,-89.95 699.39,-81.55 689.11,-84.09 692.94,-89.95"/>
<text text-anchor="middle" x="675" y="-102.8" font-family="Helvetica,Arial,sans-serif" font-size="14.00">5</text>
</g>
<!-- 1&#45;&gt;7 -->
<g id="edge5" class="edge">
<title>1&#45;&gt;7</title>
<path fill="none" stroke="black" d="M651.5,-26.2C659.86,-30.82 670.22,-36.87 679,-43 683.77,-46.33 688.7,-50.15 693.3,-53.9"/>
<polygon fill="black" stroke="black" points="691.2,-56.71 701.11,-60.45 695.7,-51.34 691.2,-56.71"/>
<text text-anchor="middle" x="675" y="-46.8" font-family="Helvetica,Arial,sans-serif" font-size="14.00">0</text>
</g>
<!-- 6 -->
<g id="node5" class="node">
<title>6</title>
<ellipse fill="none" stroke="black" cx="98" cy="-123" rx="18" ry="18"/>
<text text-anchor="middle" x="98" y="-119.3" font-family="Helvetica,Arial,sans-serif" font-size="14.00">6</text>
</g>
<!-- 6&#45;&gt;4 -->
<g id="edge6" class="edge">
<title>6&#45;&gt;4</title>
<path fill="none" stroke="black" d="M113.92,-114.5C119.98,-111.39 127.16,-108.11 134,-106 153.24,-100.07 281.48,-82.94 338.39,-75.51"/>
<polygon fill="black" stroke="black" points="338.99,-78.96 348.45,-74.2 338.09,-72.02 338.99,-78.96"/>
<text text-anchor="middle" x="205.5" y="-109.8" font-family="Helvetica,Arial,sans-serif" font-size="14.00">4611686018427387903</text>
</g>
<!-- 6&#45;&gt;3 -->
<g id="edge7" class="edge">
<title>6&#45;&gt;3</title>
<path fill="none" stroke="black" d="M116.19,-123C193.7,-123 510.94,-123 606.58,-123"/>
<polygon fill="black" stroke="black" points="606.87,-126.5 616.87,-123 606.87,-119.5 606.87,-126.5"/>
<text text-anchor="middle" x="366.5" y="-126.8" font-family="Helvetica,Arial,sans-serif" font-size="14.00">4611686018427387903</text>
</g>
<!-- 5 -->
<g id="node6" class="node">
<title>5</title>
<ellipse fill="none" stroke="black" cx="98" cy="-18" rx="18" ry="18"/>
<text text-anchor="middle" x="98" y="-14.3" font-family="Helvetica,Arial,sans-serif" font-size="14.00">5</text>
</g>
<!-- 5&#45;&gt;4 -->
<g id="edge8" class="edge">
<title>5&#45;&gt;4</title>
<path fill="none" stroke="black" d="M116.12,-19.39C148.06,-22.2 218.79,-29.49 277,-43 298.59,-48.01 322.44,-55.97 339.93,-62.29"/>
<polygon fill="black" stroke="black" points="338.84,-65.61 349.43,-65.78 341.25,-59.04 338.84,-65.61"/>
<text text-anchor="middle" x="205.5" y="-46.8" font-family="Helvetica,Arial,sans-serif" font-size="14.00">4611686018427387903</text>
</g>
<!-- 5&#45;&gt;1 -->
<g id="edge9" class="edge">
<title>5&#45;&gt;1</title>
<path fill="none" stroke="black" d="M116.19,-18C193.7,-18 510.94,-18 606.58,-18"/>
<polygon fill="black" stroke="black" points="606.87,-21.5 616.87,-18 606.87,-14.5 606.87,-21.5"/>
<text text-anchor="middle" x="366.5" y="-21.8" font-family="Helvetica,Arial,sans-serif" font-size="14.00">4611686018427387903</text>
</g>
<!-- 0 -->
<g id="node7" class="node">
<title>0</title>
<ellipse fill="none" stroke="black" cx="18" cy="-72" rx="18" ry="18"/>
<text text-anchor="middle" x="18" y="-68.3" font-family="Helvetica,Arial,sans-serif" font-size="14.00">0</text>
</g>
<!-- 0&#45;&gt;4 -->
<g id="edge12" class="edge">
<title>0&#45;&gt;4</title>
<path fill="none" stroke="black" d="M36.18,-72C92.18,-72 269.72,-72 338.2,-72"/>
<polygon fill="black" stroke="black" points="338.21,-75.5 348.21,-72 338.21,-68.5 338.21,-75.5"/>
<text text-anchor="middle" x="98" y="-75.8" font-family="Helvetica,Arial,sans-serif" font-size="14.00">6</text>
</g>
<!-- 0&#45;&gt;6 -->
<g id="edge10" class="edge">
<title>0&#45;&gt;6</title>
<path fill="none" stroke="black" d="M33.67,-81.59C45,-89 60.89,-99.39 73.92,-107.91"/>
<polygon fill="black" stroke="black" points="72.11,-110.91 82.39,-113.45 75.94,-105.05 72.11,-110.91"/>
<text text-anchor="middle" x="58" y="-102.8" font-family="Helvetica,Arial,sans-serif" font-size="14.00">0</text>
</g>
<!-- 0&#45;&gt;5 -->
<g id="edge11" class="edge">
<title>0&#45;&gt;5</title>
<path fill="none" stroke="black" d="M31.89,-60.45C38.33,-54.91 46.36,-48.33 54,-43 59.9,-38.88 66.51,-34.8 72.75,-31.16"/>
<polygon fill="black" stroke="black" points="74.53,-34.18 81.5,-26.2 71.07,-28.09 74.53,-34.18"/>
<text text-anchor="middle" x="58" y="-46.8" font-family="Helvetica,Arial,sans-serif" font-size="14.00">1</text>
</g>
</g>
</svg>
